# xmcd
#
# Track frame offsets: 
#        150
#        16159
#        35005
#        45186
#        59997
#        77502
#        90527
#        106491
#        121249
#        135734
#        146871
#        160737
#
# Disc length: 2316 seconds
#
# Revision: 0
# Processed by: cddbd v1.5.2PL0 Copyright (c) Steve Scherf et al.
# Submitted via: ExactAudioCopy v0.99pb5
#
DISCID=9c090a0c
DTITLE=Laura Benitez - for duty or for love
DYEAR=2010
DGENRE=Country
TTITLE0=Anyone But Me
TTITLE1=Hard Drinking Song
TTITLE2=Too Close For Comfort Blues
TTITLE3=One of Those Nights
TTITLE4=Except for You
TTITLE5=In Love This Time
TTITLE6=Me or the Baby
TTITLE7=It's Time to Decide
TTITLE8=Crazy Love
TTITLE9=Don't Wake the Devil
TTITLE10=I Can't Ask That of You
TTITLE11=How Are Things With You
EXTD=
EXTT0=
EXTT1=
EXTT2=
EXTT3=
EXTT4=
EXTT5=
EXTT6=
EXTT7=
EXTT8=
EXTT9=
EXTT10=
EXTT11=
PLAYORDER=
